<?xml version="1.0" encoding="UTF-8"?>
<svg xmlns="http://www.w3.org/2000/svg" xmlns:xlink="http://www.w3.org/1999/xlink" width="23pt" height="15pt" viewBox="0 0 23 15" version="1.1">
<g id="surface1">
<path style=" stroke:none;fill-rule:evenodd;fill:rgb(14.509804%,34.117647%,83.921569%);fill-opacity:1;" d="M 1.253906 0 L 21.746094 0 C 22.421875 0 22.96875 0.570312 22.96875 1.273438 L 22.96875 13.726562 C 22.96875 14.429688 22.421875 15 21.746094 15 L 1.253906 15 C 0.578125 15 0.03125 14.429688 0.03125 13.726562 L 0.03125 1.273438 C 0.03125 0.570312 0.578125 0 1.253906 0 Z M 1.253906 0 "/>
<path style=" stroke:none;fill-rule:evenodd;fill:rgb(100%,100%,100%);fill-opacity:1;" d="M 0.03125 7.042969 L 1.132812 7.042969 L 1.382812 6.421875 L 1.9375 6.421875 L 2.183594 7.042969 L 4.351562 7.042969 L 4.351562 6.570312 L 4.546875 7.046875 L 5.671875 7.046875 L 5.863281 6.5625 L 5.863281 7.042969 L 11.253906 7.042969 L 11.25 6.023438 L 11.355469 6.023438 C 11.425781 6.027344 11.449219 6.035156 11.449219 6.160156 L 11.449219 7.042969 L 14.234375 7.042969 L 14.234375 6.808594 C 14.460938 6.929688 14.808594 7.042969 15.269531 7.042969 L 16.441406 7.042969 L 16.691406 6.421875 L 17.25 6.421875 L 17.496094 7.042969 L 19.753906 7.042969 L 19.753906 6.453125 L 20.09375 7.042969 L 21.90625 7.042969 L 21.90625 3.144531 L 20.113281 3.144531 L 20.113281 3.601562 L 19.863281 3.144531 L 18.023438 3.144531 L 18.023438 3.601562 L 17.792969 3.144531 L 15.3125 3.144531 C 14.894531 3.144531 14.53125 3.203125 14.234375 3.371094 L 14.234375 3.144531 L 12.523438 3.144531 L 12.523438 3.371094 C 12.332031 3.199219 12.078125 3.144531 11.792969 3.144531 L 5.53125 3.144531 L 5.113281 4.148438 L 4.683594 3.144531 L 2.710938 3.144531 L 2.710938 3.601562 L 2.492188 3.144531 L 0.8125 3.144531 L 0.03125 4.996094 Z M 6.984375 6.480469 L 6.324219 6.480469 L 6.320312 4.289062 L 5.386719 6.480469 L 4.820312 6.480469 L 3.882812 4.289062 L 3.882812 6.480469 L 2.570312 6.480469 L 2.324219 5.855469 L 0.980469 5.855469 L 0.730469 6.480469 L 0.03125 6.480469 L 1.183594 3.683594 L 2.144531 3.683594 L 3.238281 6.332031 L 3.238281 3.683594 L 4.292969 3.683594 L 5.136719 5.582031 L 5.910156 3.683594 L 6.984375 3.683594 Z M 2.105469 5.277344 L 1.664062 4.160156 L 1.222656 5.277344 Z M 9.617188 6.480469 L 7.460938 6.480469 L 7.460938 3.683594 L 9.617188 3.683594 L 9.617188 4.265625 L 8.105469 4.265625 L 8.105469 4.769531 L 9.582031 4.769531 L 9.582031 5.34375 L 8.105469 5.34375 L 8.105469 5.902344 L 9.617188 5.902344 Z M 12.652344 4.4375 C 12.652344 4.882812 12.363281 5.113281 12.199219 5.183594 C 12.339844 5.238281 12.460938 5.335938 12.515625 5.417969 C 12.609375 5.558594 12.625 5.683594 12.625 5.933594 L 12.625 6.480469 L 11.972656 6.480469 L 11.972656 6.128906 C 11.972656 5.960938 11.988281 5.71875 11.867188 5.582031 C 11.773438 5.484375 11.632812 5.464844 11.398438 5.464844 L 10.707031 5.464844 L 10.707031 6.480469 L 10.0625 6.480469 L 10.0625 3.683594 L 11.546875 3.683594 C 11.875 3.683594 12.117188 3.691406 12.324219 3.816406 C 12.53125 3.941406 12.652344 4.125 12.652344 4.4375 Z M 11.835938 4.851562 C 11.75 4.910156 11.644531 4.910156 11.519531 4.910156 L 10.734375 4.910156 L 10.734375 4.289062 L 11.527344 4.289062 C 11.640625 4.289062 11.757812 4.292969 11.835938 4.339844 C 11.917969 4.378906 11.96875 4.46875 11.96875 4.585938 C 11.96875 4.710938 11.921875 4.808594 11.835938 4.851562 Z M 13.6875 6.480469 L 13.027344 6.480469 L 13.027344 3.683594 L 13.6875 3.683594 Z M 21.324219 6.480469 L 20.410156 6.480469 L 19.1875 4.382812 L 19.1875 6.480469 L 17.875 6.480469 L 17.625 5.855469 L 16.285156 5.855469 L 16.042969 6.480469 L 15.285156 6.480469 C 14.972656 6.480469 14.578125 6.410156 14.351562 6.171875 C 14.125 5.933594 14.007812 5.613281 14.007812 5.105469 C 14.007812 4.6875 14.078125 4.308594 14.355469 4.011719 C 14.5625 3.785156 14.890625 3.683594 15.335938 3.683594 L 15.957031 3.683594 L 15.957031 4.285156 L 15.347656 4.285156 C 15.113281 4.285156 14.980469 4.320312 14.851562 4.449219 C 14.742188 4.566406 14.664062 4.789062 14.664062 5.082031 C 14.664062 5.382812 14.722656 5.597656 14.84375 5.738281 C 14.941406 5.851562 15.121094 5.882812 15.292969 5.882812 L 15.582031 5.882812 L 16.492188 3.683594 L 17.457031 3.683594 L 18.550781 6.328125 L 18.550781 3.683594 L 19.53125 3.683594 L 20.664062 5.632812 L 20.664062 3.683594 L 21.324219 3.683594 Z M 17.40625 5.277344 L 16.957031 4.160156 L 16.515625 5.277344 Z M 22.96875 10.949219 C 22.8125 11.183594 22.507812 11.304688 22.09375 11.304688 L 20.847656 11.304688 L 20.847656 10.707031 L 22.089844 10.707031 C 22.210938 10.707031 22.296875 10.6875 22.347656 10.636719 C 22.398438 10.589844 22.425781 10.523438 22.425781 10.453125 C 22.425781 10.371094 22.394531 10.308594 22.347656 10.269531 C 22.300781 10.226562 22.230469 10.207031 22.121094 10.207031 C 21.511719 10.1875 20.757812 10.226562 20.757812 9.339844 C 20.757812 8.933594 21.007812 8.507812 21.683594 8.507812 L 22.96875 8.507812 L 22.96875 7.953125 L 21.773438 7.953125 C 21.414062 7.953125 21.152344 8.039062 20.96875 8.179688 L 20.96875 7.953125 L 19.203125 7.953125 C 18.921875 7.953125 18.589844 8.023438 18.433594 8.179688 L 18.433594 7.953125 L 15.28125 7.953125 L 15.28125 8.179688 C 15.027344 7.992188 14.605469 7.953125 14.410156 7.953125 L 12.332031 7.953125 L 12.332031 8.179688 C 12.132812 7.980469 11.691406 7.953125 11.421875 7.953125 L 9.09375 7.953125 L 8.5625 8.546875 L 8.0625 7.953125 L 4.585938 7.953125 L 4.585938 11.855469 L 8 11.855469 L 8.546875 11.25 L 9.0625 11.855469 L 11.167969 11.855469 L 11.167969 10.9375 L 11.371094 10.9375 C 11.652344 10.945312 11.980469 10.933594 12.269531 10.800781 L 12.269531 11.855469 L 14.003906 11.855469 L 14.003906 10.835938 L 14.089844 10.835938 C 14.195312 10.835938 14.207031 10.84375 14.207031 10.953125 L 14.207031 11.855469 L 19.472656 11.855469 C 19.808594 11.855469 20.15625 11.765625 20.351562 11.605469 L 20.351562 11.855469 L 22.023438 11.855469 C 22.371094 11.855469 22.710938 11.804688 22.96875 11.675781 Z M 12.523438 9.445312 C 12.523438 10.222656 11.964844 10.382812 11.398438 10.382812 L 10.59375 10.382812 L 10.59375 11.324219 L 9.34375 11.324219 L 8.546875 10.394531 L 7.722656 11.324219 L 5.167969 11.324219 L 5.167969 8.523438 L 7.761719 8.523438 L 8.554688 9.441406 L 9.375 8.523438 L 11.4375 8.523438 C 11.949219 8.523438 12.523438 8.671875 12.523438 9.445312 Z M 7.394531 10.734375 L 5.8125 10.734375 L 5.8125 10.175781 L 7.226562 10.175781 L 7.226562 9.605469 L 5.8125 9.605469 L 5.8125 9.097656 L 7.425781 9.097656 L 8.132812 9.914062 Z M 9.949219 11.054688 L 8.960938 9.914062 L 9.949219 8.8125 Z M 11.414062 9.808594 L 10.582031 9.808594 L 10.582031 9.097656 L 11.421875 9.097656 C 11.65625 9.097656 11.816406 9.195312 11.816406 9.441406 C 11.816406 9.683594 11.664062 9.808594 11.414062 9.808594 Z M 15.78125 8.523438 L 17.933594 8.523438 L 17.933594 9.101562 L 16.421875 9.101562 L 16.421875 9.613281 L 17.894531 9.613281 L 17.894531 10.183594 L 16.421875 10.183594 L 16.421875 10.738281 L 17.933594 10.742188 L 17.933594 11.324219 L 15.78125 11.324219 Z M 14.953125 10.023438 C 15.097656 10.078125 15.214844 10.175781 15.269531 10.257812 C 15.359375 10.394531 15.375 10.519531 15.375 10.769531 L 15.375 11.324219 L 14.730469 11.324219 L 14.730469 10.972656 C 14.730469 10.804688 14.746094 10.554688 14.625 10.425781 C 14.53125 10.324219 14.386719 10.300781 14.152344 10.300781 L 13.460938 10.300781 L 13.460938 11.324219 L 12.8125 11.324219 L 12.8125 8.523438 L 14.304688 8.523438 C 14.628906 8.523438 14.867188 8.539062 15.078125 8.65625 C 15.28125 8.785156 15.410156 8.957031 15.410156 9.277344 C 15.410156 9.722656 15.125 9.953125 14.953125 10.023438 Z M 14.589844 9.667969 C 14.503906 9.722656 14.394531 9.726562 14.269531 9.726562 L 13.488281 9.726562 L 13.488281 9.097656 L 14.28125 9.097656 C 14.394531 9.097656 14.511719 9.101562 14.589844 9.148438 C 14.671875 9.195312 14.722656 9.28125 14.722656 9.398438 C 14.722656 9.519531 14.671875 9.617188 14.589844 9.667969 Z M 20.410156 9.847656 C 20.535156 9.980469 20.601562 10.152344 20.601562 10.441406 C 20.601562 11.042969 20.242188 11.324219 19.589844 11.324219 L 18.335938 11.324219 L 18.335938 10.722656 L 19.585938 10.722656 C 19.707031 10.722656 19.792969 10.707031 19.847656 10.652344 C 19.894531 10.609375 19.925781 10.546875 19.925781 10.46875 C 19.925781 10.390625 19.890625 10.324219 19.847656 10.285156 C 19.796875 10.242188 19.730469 10.222656 19.617188 10.222656 C 19.011719 10.203125 18.257812 10.242188 18.257812 9.359375 C 18.257812 8.953125 18.503906 8.523438 19.179688 8.523438 L 20.472656 8.523438 L 20.472656 9.121094 L 19.289062 9.121094 C 19.171875 9.121094 19.097656 9.125 19.03125 9.171875 C 18.960938 9.214844 18.933594 9.28125 18.933594 9.371094 C 18.933594 9.476562 18.996094 9.550781 19.074219 9.582031 C 19.144531 9.605469 19.21875 9.613281 19.328125 9.613281 L 19.675781 9.621094 C 20.023438 9.628906 20.265625 9.691406 20.410156 9.847656 Z M 22.96875 9.097656 L 21.792969 9.097656 C 21.675781 9.097656 21.597656 9.101562 21.53125 9.148438 C 21.464844 9.195312 21.4375 9.261719 21.4375 9.347656 C 21.4375 9.457031 21.496094 9.527344 21.578125 9.558594 C 21.648438 9.582031 21.722656 9.589844 21.828125 9.589844 L 22.179688 9.597656 C 22.53125 9.609375 22.765625 9.671875 22.910156 9.824219 C 22.9375 9.847656 22.953125 9.871094 22.96875 9.894531 Z M 22.96875 9.097656 "/>
</g>
</svg>
