<?xml version="1.0" encoding="UTF-8"?>
<svg xmlns="http://www.w3.org/2000/svg" xmlns:xlink="http://www.w3.org/1999/xlink" width="23pt" height="15pt" viewBox="0 0 23 15" version="1.1">
<g id="surface1">
<path style=" stroke:none;fill-rule:evenodd;fill:rgb(0%,47.45098%,74.509804%);fill-opacity:1;" d="M 1.226562 0 L 21.773438 0 C 22.449219 0 23 0.570312 23 1.273438 L 23 13.726562 C 23 14.429688 22.449219 15 21.773438 15 L 1.226562 15 C 0.550781 15 0 14.429688 0 13.726562 L 0 1.273438 C 0 0.570312 0.550781 0 1.226562 0 Z M 1.226562 0 "/>
<path style=" stroke:none;fill-rule:evenodd;fill:rgb(100%,100%,100%);fill-opacity:1;" d="M 17.9375 7.578125 C 17.9375 4.410156 15.394531 2.222656 12.605469 2.222656 L 10.207031 2.222656 C 7.382812 2.222656 5.0625 4.414062 5.0625 7.578125 C 5.0625 10.472656 7.382812 12.851562 10.207031 12.839844 L 12.605469 12.839844 C 15.394531 12.851562 17.9375 10.472656 17.9375 7.578125 Z M 17.9375 7.578125 "/>
<path style=" stroke:none;fill-rule:evenodd;fill:rgb(0%,47.45098%,74.509804%);fill-opacity:1;" d="M 10.21875 2.671875 C 7.640625 2.671875 5.554688 4.847656 5.550781 7.53125 C 5.554688 10.214844 7.640625 12.390625 10.21875 12.390625 C 12.800781 12.390625 14.890625 10.214844 14.890625 7.53125 C 14.890625 4.847656 12.800781 2.671875 10.21875 2.671875 Z M 10.21875 2.671875 "/>
<path style=" stroke:none;fill-rule:evenodd;fill:rgb(100%,100%,100%);fill-opacity:1;" d="M 7.269531 7.519531 C 7.273438 6.207031 8.058594 5.089844 9.167969 4.644531 L 9.167969 10.394531 C 8.058594 9.949219 7.273438 8.832031 7.269531 7.519531 Z M 11.289062 10.394531 L 11.289062 4.644531 C 12.398438 5.089844 13.1875 6.207031 13.1875 7.519531 C 13.1875 8.832031 12.398438 9.949219 11.289062 10.394531 Z M 11.289062 10.394531 "/>
</g>
</svg>
