<?xml version="1.0" encoding="UTF-8"?>
<svg xmlns="http://www.w3.org/2000/svg" xmlns:xlink="http://www.w3.org/1999/xlink" width="23pt" height="15pt" viewBox="0 0 23 15" version="1.1">
<g id="surface1">
<path style=" stroke:none;fill-rule:evenodd;fill:rgb(30.196078%,30.196078%,30.196078%);fill-opacity:1;" d="M 1.621094 0 C 0.726562 0 0 0.738281 0 1.648438 L 0 13.351562 C 0 14.261719 0.726562 15 1.621094 15 L 21.378906 15 C 22.273438 15 23 14.261719 23 13.351562 L 23 1.648438 C 23 0.738281 22.273438 0 21.378906 0 Z M 1.621094 0 "/>
<path style=" stroke:none;fill-rule:evenodd;fill:rgb(100%,100%,100%);fill-opacity:1;" d="M 12.242188 4.828125 C 13.152344 4.828125 13.894531 5.53125 13.894531 6.40625 C 13.894531 7.277344 13.152344 7.984375 12.242188 7.984375 C 11.328125 7.984375 10.589844 7.277344 10.589844 6.40625 C 10.589844 5.53125 11.328125 4.828125 12.242188 4.828125 Z M 9.648438 4.847656 C 9.90625 4.847656 10.125 4.902344 10.390625 5.03125 L 10.390625 5.710938 C 10.140625 5.476562 9.921875 5.375 9.632812 5.375 C 9.0625 5.375 8.617188 5.828125 8.617188 6.394531 C 8.617188 6.996094 9.050781 7.421875 9.660156 7.421875 C 9.933594 7.421875 10.148438 7.328125 10.390625 7.09375 L 10.390625 7.777344 C 10.117188 7.898438 9.894531 7.949219 9.632812 7.949219 C 8.710938 7.949219 7.992188 7.273438 7.992188 6.398438 C 7.992188 5.539062 8.730469 4.847656 9.648438 4.847656 Z M 6.78125 4.867188 C 7.125 4.867188 7.433594 4.976562 7.695312 5.195312 L 7.378906 5.589844 C 7.222656 5.421875 7.070312 5.351562 6.890625 5.351562 C 6.628906 5.351562 6.4375 5.492188 6.4375 5.679688 C 6.4375 5.839844 6.546875 5.925781 6.910156 6.054688 C 7.597656 6.292969 7.800781 6.507812 7.800781 6.980469 C 7.800781 7.554688 7.359375 7.953125 6.730469 7.953125 C 6.269531 7.953125 5.933594 7.78125 5.65625 7.390625 L 6.046875 7.03125 C 6.1875 7.289062 6.417969 7.425781 6.707031 7.425781 C 6.980469 7.425781 7.179688 7.246094 7.179688 7.007812 C 7.179688 6.882812 7.117188 6.773438 6.996094 6.699219 C 6.9375 6.664062 6.816406 6.609375 6.578125 6.53125 C 6.011719 6.335938 5.816406 6.125 5.816406 5.714844 C 5.816406 5.230469 6.234375 4.867188 6.78125 4.867188 Z M 13.703125 4.917969 L 14.367188 4.917969 L 15.195312 6.910156 L 16.03125 4.917969 L 16.691406 4.917969 L 15.347656 7.960938 L 15.023438 7.960938 Z M 1.988281 4.921875 L 2.875 4.921875 C 3.859375 4.921875 4.542969 5.53125 4.542969 6.410156 C 4.542969 6.84375 4.335938 7.265625 3.980469 7.546875 C 3.683594 7.785156 3.34375 7.890625 2.871094 7.890625 L 1.988281 7.890625 Z M 4.824219 4.921875 L 5.429688 4.921875 L 5.429688 7.890625 L 4.824219 7.890625 Z M 16.964844 4.921875 L 18.679688 4.921875 L 18.679688 5.425781 L 17.570312 5.425781 L 17.570312 6.082031 L 18.640625 6.082031 L 18.640625 6.585938 L 17.570312 6.585938 L 17.570312 7.386719 L 18.679688 7.386719 L 18.679688 7.890625 L 16.964844 7.890625 Z M 19.082031 4.921875 L 19.980469 4.921875 C 20.679688 4.921875 21.078125 5.242188 21.078125 5.796875 C 21.078125 6.253906 20.828125 6.550781 20.371094 6.640625 L 21.347656 7.890625 L 20.605469 7.890625 L 19.765625 6.699219 L 19.6875 6.699219 L 19.6875 7.890625 L 19.082031 7.890625 Z M 19.6875 5.390625 L 19.6875 6.289062 L 19.863281 6.289062 C 20.25 6.289062 20.457031 6.128906 20.457031 5.828125 C 20.457031 5.539062 20.25 5.390625 19.875 5.390625 Z M 2.59375 5.425781 L 2.59375 7.386719 L 2.753906 7.386719 C 3.148438 7.386719 3.394531 7.316406 3.585938 7.152344 C 3.792969 6.972656 3.921875 6.6875 3.921875 6.402344 C 3.921875 6.121094 3.792969 5.84375 3.585938 5.664062 C 3.382812 5.492188 3.148438 5.425781 2.753906 5.425781 Z M 2.59375 5.425781 "/>
<path style=" stroke:none;fill-rule:evenodd;fill:rgb(95.686275%,44.705882%,8.627451%);fill-opacity:1;" d="M 23 8.632812 C 22.230469 9.183594 16.480469 13.105469 6.523438 15 L 21.378906 15 C 22.273438 15 23 14.261719 23 13.351562 Z M 23 8.632812 "/>
</g>
</svg>
