<?xml version="1.0" encoding="UTF-8"?>
<svg xmlns="http://www.w3.org/2000/svg" xmlns:xlink="http://www.w3.org/1999/xlink" width="23pt" height="15pt" viewBox="0 0 23 15" version="1.1">
<defs>
<linearGradient id="linear0" gradientUnits="userSpaceOnUse" x1="0.00032" y1="0.5" x2="0.99974" y2="0.5" gradientTransform="matrix(4.074219,0,0,10.289062,14.03125,2.355469)">
<stop offset="0" style="stop-color:rgb(0%,48.235294%,25.098039%);stop-opacity:1;"/>
<stop offset="1" style="stop-color:rgb(33.333333%,70.196078%,18.823529%);stop-opacity:1;"/>
</linearGradient>
<linearGradient id="linear1" gradientUnits="userSpaceOnUse" x1="0.00472" y1="0.5" x2="0.99986" y2="0.5" gradientTransform="matrix(4.089844,0,0,10.289062,4.878906,2.355469)">
<stop offset="0" style="stop-color:rgb(11.372549%,16.078431%,43.921569%);stop-opacity:1;"/>
<stop offset="1" style="stop-color:rgb(0%,42.745098%,72.941176%);stop-opacity:1;"/>
</linearGradient>
<linearGradient id="linear2" gradientUnits="userSpaceOnUse" x1="0.00114" y1="0.50001" x2="0.99986" y2="0.50001" gradientTransform="matrix(4.070312,0,0,10.289062,9.464844,2.355469)">
<stop offset="0" style="stop-color:rgb(43.137255%,16.862745%,18.431373%);stop-opacity:1;"/>
<stop offset="1" style="stop-color:rgb(89.019608%,0.392157%,21.960784%);stop-opacity:1;"/>
</linearGradient>
</defs>
<g id="surface1">
<path style=" stroke:none;fill-rule:evenodd;fill:rgb(5.490196%,29.803922%,58.823529%);fill-opacity:1;" d="M 1.226562 0 L 21.773438 0 C 22.449219 0 23 0.570312 23 1.273438 L 23 13.726562 C 23 14.429688 22.449219 15 21.773438 15 L 1.226562 15 C 0.550781 15 0 14.429688 0 13.726562 L 0 1.273438 C 0 0.570312 0.550781 0 1.226562 0 Z M 1.226562 0 "/>
<path style=" stroke:none;fill-rule:evenodd;fill:rgb(100%,100%,100%);fill-opacity:1;" d="M 18.929688 11.042969 C 18.929688 12.367188 17.894531 13.445312 16.617188 13.445312 L 4.070312 13.445312 L 4.070312 3.957031 C 4.070312 2.632812 5.105469 1.554688 6.382812 1.554688 L 18.929688 1.554688 Z M 18.929688 11.042969 "/>
<path style=" stroke:none;fill-rule:evenodd;fill:url(#linear0);" d="M 14.839844 7.707031 C 15.195312 7.714844 15.558594 7.691406 15.914062 7.722656 C 16.277344 7.792969 16.363281 8.359375 16.042969 8.546875 C 15.824219 8.667969 15.5625 8.589844 15.324219 8.613281 L 14.839844 8.613281 Z M 16.121094 6.683594 C 16.199219 6.976562 15.929688 7.238281 15.660156 7.199219 L 14.839844 7.199219 C 14.84375 6.921875 14.828125 6.625 14.847656 6.363281 C 15.175781 6.375 15.507812 6.34375 15.835938 6.378906 C 15.976562 6.414062 16.09375 6.535156 16.121094 6.683594 Z M 18.097656 2.355469 C 18.113281 2.914062 18.097656 3.5 18.105469 4.070312 C 18.101562 6.382812 18.105469 8.695312 18.101562 11.003906 C 18.085938 11.871094 17.347656 12.625 16.519531 12.640625 C 15.691406 12.644531 14.859375 12.640625 14.03125 12.644531 L 14.03125 9.148438 C 14.933594 9.144531 15.839844 9.15625 16.742188 9.140625 C 17.160156 9.113281 17.621094 8.828125 17.640625 8.347656 C 17.691406 7.867188 17.253906 7.535156 16.839844 7.480469 C 16.679688 7.476562 16.683594 7.433594 16.839844 7.414062 C 17.234375 7.324219 17.542969 6.898438 17.429688 6.472656 C 17.328125 6.027344 16.851562 5.851562 16.457031 5.855469 C 15.648438 5.847656 14.839844 5.851562 14.03125 5.851562 C 14.035156 5.199219 14.019531 4.546875 14.039062 3.894531 C 14.105469 3.042969 14.863281 2.339844 15.679688 2.355469 Z M 18.097656 2.355469 "/>
<path style=" stroke:none;fill-rule:evenodd;fill:url(#linear1);" d="M 4.898438 3.980469 C 4.917969 3.117188 5.660156 2.371094 6.488281 2.359375 C 7.316406 2.355469 8.140625 2.355469 8.96875 2.355469 C 8.964844 5.25 8.972656 8.144531 8.964844 11.039062 C 8.933594 11.894531 8.199219 12.628906 7.378906 12.640625 C 6.550781 12.644531 5.722656 12.640625 4.898438 12.644531 L 4.898438 9.03125 C 5.699219 9.226562 6.542969 9.3125 7.363281 9.179688 C 7.855469 9.097656 8.390625 8.847656 8.558594 8.320312 C 8.679688 7.867188 8.609375 7.394531 8.628906 6.929688 L 8.628906 5.851562 L 7.210938 5.851562 C 7.203125 6.5625 7.222656 7.277344 7.199219 7.988281 C 7.160156 8.425781 6.742188 8.703125 6.347656 8.691406 C 5.855469 8.695312 4.878906 8.320312 4.878906 8.320312 C 4.875 6.984375 4.890625 5.3125 4.898438 3.980469 Z M 4.898438 3.980469 "/>
<path style=" stroke:none;fill-rule:evenodd;fill:url(#linear2);" d="M 9.5 6.285156 C 9.421875 6.304688 9.484375 6.023438 9.464844 5.914062 C 9.46875 5.242188 9.453125 4.566406 9.472656 3.894531 C 9.535156 3.039062 10.300781 2.335938 11.121094 2.355469 L 13.535156 2.355469 C 13.535156 5.25 13.539062 8.144531 13.53125 11.039062 C 13.5 11.894531 12.765625 12.628906 11.949219 12.640625 C 11.121094 12.644531 10.292969 12.644531 9.464844 12.644531 L 9.464844 8.683594 C 10.03125 9.167969 10.796875 9.242188 11.503906 9.242188 C 12.035156 9.242188 12.5625 9.15625 13.078125 9.03125 L 13.078125 8.304688 C 12.496094 8.605469 11.8125 8.796875 11.167969 8.625 C 10.71875 8.507812 10.394531 8.058594 10.398438 7.574219 C 10.347656 7.074219 10.628906 6.546875 11.105469 6.398438 C 11.691406 6.207031 12.335938 6.351562 12.886719 6.601562 C 13.003906 6.664062 13.125 6.746094 13.078125 6.539062 L 13.078125 5.96875 C 12.15625 5.742188 11.171875 5.65625 10.246094 5.90625 C 9.976562 5.984375 9.714844 6.101562 9.5 6.285156 Z M 9.5 6.285156 "/>
</g>
</svg>
