<?xml version="1.0" encoding="UTF-8"?>
<svg xmlns="http://www.w3.org/2000/svg" xmlns:xlink="http://www.w3.org/1999/xlink" width="23pt" height="15pt" viewBox="0 0 23 15" version="1.1">
<g id="surface1">
<path style=" stroke:none;fill-rule:evenodd;fill:rgb(0%,0%,0%);fill-opacity:1;" d="M 1.226562 0 L 21.773438 0 C 22.449219 0 23 0.570312 23 1.273438 L 23 13.726562 C 23 14.429688 22.449219 15 21.773438 15 L 1.226562 15 C 0.550781 15 0 14.429688 0 13.726562 L 0 1.273438 C 0 0.570312 0.550781 0 1.226562 0 Z M 1.226562 0 "/>
<path style=" stroke:none;fill-rule:evenodd;fill:rgb(85.098039%,13.333333%,16.470588%);fill-opacity:1;" d="M 20.699219 7.5 C 20.699219 10.65625 18.234375 13.214844 15.195312 13.214844 C 12.15625 13.214844 9.691406 10.65625 9.691406 7.5 C 9.691406 4.34375 12.15625 1.785156 15.195312 1.785156 C 18.234375 1.785156 20.699219 4.34375 20.699219 7.5 "/>
<path style=" stroke:none;fill-rule:evenodd;fill:rgb(0%,59.215686%,81.568627%);fill-opacity:1;" d="M 10.945312 11.128906 C 10.792969 10.9375 10.652344 10.734375 10.523438 10.523438 L 12.476562 10.523438 C 12.59375 10.328125 12.699219 10.128906 12.792969 9.917969 L 10.207031 9.917969 C 10.117188 9.722656 10.042969 9.519531 9.976562 9.3125 L 13.023438 9.3125 C 13.207031 8.742188 13.308594 8.132812 13.308594 7.5 C 13.308594 7.085938 13.265625 6.679688 13.183594 6.289062 L 9.816406 6.289062 C 9.859375 6.085938 9.910156 5.882812 9.976562 5.683594 L 13.023438 5.683594 C 12.957031 5.476562 12.878906 5.277344 12.792969 5.078125 L 10.207031 5.078125 C 10.300781 4.871094 10.40625 4.667969 10.523438 4.472656 L 12.476562 4.472656 C 12.347656 4.261719 12.207031 4.0625 12.054688 3.867188 L 10.945312 3.867188 C 11.117188 3.652344 11.300781 3.453125 11.5 3.265625 C 10.523438 2.34375 9.226562 1.785156 7.804688 1.785156 C 4.765625 1.785156 2.300781 4.34375 2.300781 7.5 C 2.300781 10.65625 4.765625 13.214844 7.804688 13.214844 C 9.226562 13.214844 10.523438 12.65625 11.5 11.738281 C 11.699219 11.546875 11.886719 11.347656 12.054688 11.128906 Z M 10.945312 11.128906 "/>
<path style=" stroke:none;fill-rule:evenodd;fill:rgb(0%,0%,0%);fill-opacity:1;" d="M 19.964844 10.6875 C 19.964844 10.585938 20.046875 10.5 20.144531 10.5 C 20.242188 10.5 20.320312 10.585938 20.320312 10.6875 C 20.320312 10.789062 20.242188 10.871094 20.144531 10.871094 C 20.046875 10.871094 19.964844 10.789062 19.964844 10.6875 Z M 20.144531 10.828125 C 20.179688 10.828125 20.214844 10.8125 20.238281 10.785156 C 20.265625 10.757812 20.277344 10.722656 20.277344 10.6875 C 20.277344 10.648438 20.265625 10.613281 20.238281 10.585938 C 20.214844 10.5625 20.179688 10.546875 20.144531 10.546875 C 20.070312 10.546875 20.007812 10.609375 20.007812 10.6875 C 20.007812 10.722656 20.023438 10.757812 20.046875 10.785156 C 20.074219 10.8125 20.109375 10.828125 20.144531 10.828125 Z M 20.121094 10.765625 L 20.082031 10.765625 L 20.082031 10.605469 L 20.148438 10.605469 C 20.164062 10.605469 20.175781 10.605469 20.191406 10.613281 C 20.203125 10.621094 20.210938 10.636719 20.210938 10.652344 C 20.210938 10.671875 20.199219 10.6875 20.183594 10.695312 L 20.210938 10.765625 L 20.171875 10.765625 L 20.148438 10.703125 L 20.121094 10.703125 Z M 20.121094 10.675781 L 20.140625 10.675781 C 20.148438 10.675781 20.15625 10.675781 20.164062 10.671875 C 20.167969 10.667969 20.171875 10.660156 20.171875 10.652344 C 20.171875 10.648438 20.167969 10.640625 20.164062 10.636719 C 20.15625 10.632812 20.144531 10.632812 20.140625 10.632812 L 20.121094 10.632812 Z M 11.421875 9.042969 C 11.1875 9.109375 10.957031 9.140625 10.71875 9.140625 C 9.953125 9.140625 9.550781 8.777344 9.550781 8.082031 C 9.550781 7.273438 10.058594 6.675781 10.75 6.675781 C 11.316406 6.675781 11.675781 7.011719 11.675781 7.535156 C 11.675781 7.707031 11.652344 7.878906 11.59375 8.117188 L 10.226562 8.117188 C 10.179688 8.457031 10.417969 8.605469 10.824219 8.605469 C 11.066406 8.605469 11.285156 8.558594 11.527344 8.457031 Z M 11.054688 7.640625 C 11.054688 7.585938 11.128906 7.222656 10.734375 7.214844 C 10.519531 7.214844 10.363281 7.367188 10.296875 7.640625 Z M 11.882812 7.480469 C 11.882812 7.777344 12.046875 7.984375 12.414062 8.140625 C 12.699219 8.261719 12.742188 8.292969 12.742188 8.402344 C 12.742188 8.550781 12.617188 8.617188 12.339844 8.617188 C 12.132812 8.617188 11.941406 8.589844 11.71875 8.523438 L 11.621094 9.070312 C 11.820312 9.117188 12.097656 9.132812 12.34375 9.140625 C 13.082031 9.140625 13.421875 8.890625 13.421875 8.347656 C 13.421875 8.023438 13.28125 7.832031 12.929688 7.6875 C 12.636719 7.566406 12.605469 7.542969 12.605469 7.429688 C 12.605469 7.300781 12.71875 7.238281 12.945312 7.238281 C 13.082031 7.238281 13.269531 7.25 13.449219 7.273438 L 13.546875 6.722656 C 13.367188 6.695312 13.089844 6.675781 12.933594 6.675781 C 12.152344 6.675781 11.882812 7.042969 11.882812 7.480469 M 9.179688 9.101562 L 8.605469 9.101562 L 8.617188 8.851562 C 8.445312 9.050781 8.210938 9.140625 7.898438 9.140625 C 7.523438 9.140625 7.265625 8.875 7.265625 8.492188 C 7.265625 7.914062 7.710938 7.582031 8.476562 7.582031 C 8.554688 7.582031 8.65625 7.585938 8.757812 7.597656 C 8.777344 7.519531 8.785156 7.488281 8.785156 7.445312 C 8.785156 7.285156 8.664062 7.226562 8.34375 7.226562 C 8.027344 7.230469 7.8125 7.277344 7.613281 7.332031 L 7.710938 6.800781 C 8.054688 6.710938 8.277344 6.675781 8.535156 6.675781 C 9.125 6.675781 9.4375 6.917969 9.4375 7.371094 C 9.441406 7.492188 9.402344 7.734375 9.382812 7.839844 C 9.359375 7.996094 9.195312 8.890625 9.179688 9.101562 Z M 8.675781 8.042969 C 8.601562 8.035156 8.570312 8.035156 8.523438 8.035156 C 8.132812 8.035156 7.933594 8.15625 7.933594 8.394531 C 7.933594 8.542969 8.03125 8.636719 8.179688 8.636719 C 8.460938 8.636719 8.664062 8.394531 8.675781 8.042969 Z M 14.628906 9.0625 C 14.441406 9.117188 14.292969 9.140625 14.136719 9.140625 C 13.785156 9.140625 13.59375 8.953125 13.59375 8.625 C 13.582031 8.53125 13.667969 8.113281 13.6875 7.996094 C 13.707031 7.875 14.011719 6.164062 14.011719 6.164062 L 14.691406 6.164062 L 14.589844 6.730469 L 14.9375 6.730469 L 14.84375 7.308594 L 14.492188 7.308594 C 14.492188 7.308594 14.300781 8.3125 14.300781 8.390625 C 14.300781 8.511719 14.371094 8.566406 14.535156 8.566406 C 14.613281 8.566406 14.671875 8.558594 14.71875 8.542969 L 14.628906 9.0625 M 17.671875 6.675781 C 17.171875 6.675781 16.78125 6.890625 16.554688 7.246094 L 16.753906 6.71875 C 16.390625 6.578125 16.15625 6.777344 15.945312 7.054688 C 15.945312 7.054688 15.910156 7.101562 15.875 7.144531 L 15.875 6.730469 L 15.234375 6.730469 C 15.148438 7.464844 14.996094 8.207031 14.875 8.941406 L 14.847656 9.101562 L 15.535156 9.101562 C 15.601562 8.730469 15.652344 8.425781 15.707031 8.183594 C 15.851562 7.523438 16.097656 7.320312 16.46875 7.410156 C 16.382812 7.601562 16.335938 7.820312 16.335938 8.066406 C 16.335938 8.65625 16.644531 9.140625 17.414062 9.140625 C 18.191406 9.140625 18.75 8.710938 18.75 7.730469 C 18.75 7.136719 18.375 6.675781 17.671875 6.675781 Z M 17.472656 8.566406 C 17.226562 8.570312 17.082031 8.355469 17.082031 8.039062 C 17.082031 7.664062 17.296875 7.242188 17.640625 7.242188 C 17.921875 7.242188 18.015625 7.46875 18.015625 7.714844 C 18.015625 8.25 17.804688 8.566406 17.472656 8.566406 Z M 6.945312 9.101562 L 6.261719 9.101562 L 6.667969 6.875 L 5.730469 9.101562 L 5.105469 9.101562 L 4.992188 6.886719 L 4.585938 9.101562 L 3.960938 9.101562 L 4.492188 6.203125 L 5.5625 6.203125 L 5.652344 7.820312 L 6.332031 6.203125 L 7.488281 6.203125 L 6.945312 9.101562 "/>
<path style=" stroke:none;fill-rule:evenodd;fill:rgb(100%,100%,100%);fill-opacity:1;" d="M 18.804688 8.738281 C 18.804688 8.636719 18.882812 8.554688 18.980469 8.554688 C 19.078125 8.554688 19.160156 8.636719 19.160156 8.738281 C 19.160156 8.839844 19.078125 8.921875 18.980469 8.921875 C 18.882812 8.921875 18.804688 8.839844 18.804688 8.738281 Z M 18.980469 8.878906 C 19.054688 8.878906 19.117188 8.816406 19.117188 8.738281 C 19.117188 8.660156 19.054688 8.597656 18.980469 8.597656 C 18.90625 8.597656 18.847656 8.660156 18.847656 8.738281 C 18.847656 8.816406 18.90625 8.878906 18.980469 8.878906 Z M 18.957031 8.820312 L 18.921875 8.820312 L 18.921875 8.65625 L 18.988281 8.65625 C 19 8.65625 19.015625 8.65625 19.027344 8.664062 C 19.039062 8.675781 19.046875 8.691406 19.046875 8.707031 C 19.046875 8.722656 19.035156 8.742188 19.019531 8.746094 L 19.046875 8.820312 L 19.007812 8.820312 L 18.984375 8.753906 L 18.957031 8.753906 Z M 18.957031 8.726562 L 18.976562 8.726562 C 18.984375 8.726562 18.992188 8.726562 19 8.722656 C 19.003906 8.71875 19.007812 8.714844 19.007812 8.707031 C 19.007812 8.699219 19.003906 8.691406 19 8.6875 C 18.992188 8.683594 18.984375 8.6875 18.976562 8.6875 L 18.957031 8.6875 Z M 11.59375 8.867188 C 11.359375 8.929688 11.132812 8.960938 10.890625 8.960938 C 10.125 8.960938 9.722656 8.597656 9.722656 7.90625 C 9.722656 7.09375 10.230469 6.496094 10.921875 6.496094 C 11.488281 6.496094 11.847656 6.832031 11.847656 7.355469 C 11.847656 7.53125 11.824219 7.699219 11.765625 7.9375 L 10.398438 7.9375 C 10.351562 8.277344 10.589844 8.425781 10.996094 8.425781 C 11.238281 8.425781 11.457031 8.378906 11.703125 8.277344 Z M 11.226562 7.460938 C 11.226562 7.410156 11.300781 7.046875 10.90625 7.039062 C 10.691406 7.039062 10.535156 7.1875 10.46875 7.460938 Z M 12.054688 7.300781 C 12.054688 7.601562 12.21875 7.808594 12.585938 7.960938 C 12.871094 8.082031 12.914062 8.117188 12.914062 8.222656 C 12.914062 8.371094 12.789062 8.441406 12.511719 8.4375 C 12.304688 8.4375 12.113281 8.410156 11.890625 8.347656 L 11.792969 8.890625 C 11.992188 8.941406 12.269531 8.957031 12.515625 8.960938 C 13.253906 8.960938 13.59375 8.710938 13.59375 8.171875 C 13.59375 7.84375 13.453125 7.652344 13.101562 7.511719 C 12.808594 7.390625 12.777344 7.363281 12.777344 7.253906 C 12.777344 7.125 12.890625 7.058594 13.117188 7.058594 C 13.253906 7.058594 13.441406 7.070312 13.621094 7.09375 L 13.71875 6.542969 C 13.539062 6.519531 13.261719 6.496094 13.105469 6.496094 C 12.324219 6.496094 12.054688 6.863281 12.054688 7.300781 M 9.351562 8.921875 L 8.777344 8.921875 L 8.792969 8.675781 C 8.617188 8.871094 8.382812 8.960938 8.070312 8.960938 C 7.695312 8.960938 7.441406 8.695312 7.441406 8.316406 C 7.441406 7.734375 7.882812 7.402344 8.648438 7.402344 C 8.726562 7.402344 8.828125 7.40625 8.929688 7.417969 C 8.949219 7.34375 8.957031 7.308594 8.957031 7.265625 C 8.957031 7.109375 8.835938 7.050781 8.515625 7.050781 C 8.199219 7.050781 7.984375 7.097656 7.785156 7.15625 L 7.882812 6.625 C 8.226562 6.53125 8.449219 6.496094 8.707031 6.496094 C 9.296875 6.496094 9.609375 6.738281 9.609375 7.191406 C 9.613281 7.3125 9.574219 7.554688 9.554688 7.660156 C 9.53125 7.816406 9.367188 8.710938 9.351562 8.921875 Z M 8.847656 7.867188 C 8.773438 7.859375 8.742188 7.855469 8.695312 7.855469 C 8.304688 7.855469 8.105469 7.976562 8.105469 8.214844 C 8.105469 8.363281 8.203125 8.457031 8.351562 8.457031 C 8.632812 8.457031 8.835938 8.214844 8.847656 7.867188 Z M 14.800781 8.886719 C 14.613281 8.9375 14.464844 8.960938 14.308594 8.960938 C 13.957031 8.960938 13.765625 8.777344 13.765625 8.445312 C 13.753906 8.355469 13.839844 7.933594 13.859375 7.816406 C 13.878906 7.699219 14.183594 5.984375 14.183594 5.984375 L 14.863281 5.984375 L 14.761719 6.550781 L 15.109375 6.550781 L 15.015625 7.128906 L 14.664062 7.128906 C 14.664062 7.128906 14.472656 8.132812 14.472656 8.210938 C 14.472656 8.332031 14.542969 8.386719 14.707031 8.386719 C 14.785156 8.386719 14.84375 8.378906 14.890625 8.363281 Z M 18.1875 7.535156 C 18.1875 8.070312 17.976562 8.386719 17.644531 8.386719 C 17.402344 8.390625 17.253906 8.179688 17.253906 7.863281 C 17.253906 7.488281 17.46875 7.0625 17.8125 7.0625 C 18.09375 7.0625 18.1875 7.292969 18.1875 7.535156 Z M 18.921875 7.550781 C 18.921875 6.960938 18.546875 6.496094 17.84375 6.496094 C 17.03125 6.496094 16.507812 7.058594 16.507812 7.886719 C 16.507812 8.476562 16.816406 8.960938 17.585938 8.960938 C 18.363281 8.960938 18.921875 8.53125 18.921875 7.550781 Z M 15.40625 6.550781 C 15.320312 7.285156 15.167969 8.027344 15.046875 8.761719 L 15.019531 8.921875 L 15.707031 8.921875 C 15.953125 7.503906 16.039062 7.101562 16.558594 7.242188 L 16.808594 6.570312 C 16.445312 6.433594 16.210938 6.628906 16 6.910156 C 16.019531 6.785156 16.054688 6.664062 16.046875 6.550781 Z M 7.117188 8.921875 L 6.433594 8.921875 L 6.839844 6.695312 L 5.902344 8.921875 L 5.277344 8.921875 L 5.164062 6.707031 L 4.757812 8.921875 L 4.132812 8.921875 L 4.664062 6.023438 L 5.734375 6.023438 L 5.792969 7.820312 L 6.546875 6.023438 L 7.660156 6.023438 Z M 7.117188 8.921875 "/>
</g>
</svg>
