<?xml version="1.0" encoding="UTF-8"?>
<svg xmlns="http://www.w3.org/2000/svg" xmlns:xlink="http://www.w3.org/1999/xlink" width="23pt" height="15pt" viewBox="0 0 23 15" version="1.1">
<g id="surface1">
<path style=" stroke:none;fill-rule:evenodd;fill:rgb(95.686275%,95.686275%,95.686275%);fill-opacity:1;" d="M 1.226562 0 L 21.773438 0 C 22.449219 0 23 0.570312 23 1.273438 L 23 13.726562 C 23 14.429688 22.449219 15 21.773438 15 L 1.226562 15 C 0.550781 15 0 14.429688 0 13.726562 L 0 1.273438 C 0 0.570312 0.550781 0 1.226562 0 Z M 1.226562 0 "/>
<path style=" stroke:none;fill-rule:evenodd;fill:rgb(0%,0%,0%);fill-opacity:1;" d="M 18.96875 13.445312 C 18.933594 13.445312 18.902344 13.457031 18.878906 13.484375 C 18.855469 13.507812 18.839844 13.539062 18.839844 13.574219 C 18.839844 13.613281 18.855469 13.644531 18.878906 13.667969 C 18.902344 13.691406 18.933594 13.707031 18.96875 13.707031 C 19.007812 13.707031 19.035156 13.691406 19.058594 13.667969 C 19.085938 13.644531 19.097656 13.613281 19.097656 13.574219 C 19.097656 13.539062 19.085938 13.507812 19.0625 13.484375 C 19.035156 13.457031 19.007812 13.445312 18.96875 13.445312 Z M 18.96875 13.675781 C 18.941406 13.675781 18.917969 13.667969 18.898438 13.648438 C 18.882812 13.628906 18.871094 13.605469 18.871094 13.574219 C 18.871094 13.546875 18.882812 13.523438 18.898438 13.503906 C 18.917969 13.484375 18.941406 13.472656 18.96875 13.472656 C 18.996094 13.472656 19.019531 13.484375 19.039062 13.503906 C 19.058594 13.523438 19.066406 13.546875 19.066406 13.574219 C 19.066406 13.605469 19.058594 13.628906 19.039062 13.648438 C 19.019531 13.667969 18.996094 13.675781 18.96875 13.675781 Z M 18.976562 13.515625 L 18.921875 13.515625 L 18.921875 13.636719 L 18.949219 13.636719 L 18.949219 13.589844 L 18.960938 13.589844 L 18.996094 13.636719 L 19.023438 13.636719 L 18.988281 13.589844 C 19 13.589844 19.007812 13.585938 19.015625 13.578125 C 19.019531 13.570312 19.023438 13.5625 19.023438 13.550781 C 19.023438 13.539062 19.019531 13.53125 19.011719 13.523438 C 19.003906 13.515625 18.992188 13.515625 18.976562 13.515625 Z M 18.976562 13.535156 C 18.984375 13.535156 18.988281 13.539062 18.992188 13.539062 C 18.996094 13.542969 19 13.546875 19 13.550781 C 19 13.558594 18.996094 13.5625 18.992188 13.566406 C 18.988281 13.566406 18.984375 13.570312 18.976562 13.570312 L 18.949219 13.570312 L 18.949219 13.535156 Z M 4.914062 13.621094 L 4.644531 13.621094 L 4.644531 12.320312 L 4.90625 12.320312 L 4.90625 12.480469 C 4.90625 12.480469 5.140625 12.285156 5.277344 12.289062 C 5.542969 12.292969 5.703125 12.527344 5.703125 12.527344 C 5.703125 12.527344 5.832031 12.289062 6.125 12.289062 C 6.554688 12.289062 6.617188 12.699219 6.617188 12.699219 L 6.617188 13.617188 L 6.359375 13.617188 L 6.359375 12.808594 C 6.359375 12.808594 6.363281 12.5625 6.082031 12.5625 C 5.792969 12.5625 5.765625 12.808594 5.765625 12.808594 L 5.765625 13.617188 L 5.496094 13.617188 L 5.496094 12.800781 C 5.496094 12.800781 5.472656 12.546875 5.230469 12.546875 C 4.914062 12.546875 4.90625 12.808594 4.90625 12.808594 Z M 13.078125 12.289062 C 12.941406 12.285156 12.710938 12.480469 12.710938 12.480469 L 12.710938 12.320312 L 12.445312 12.320312 L 12.445312 13.621094 L 12.714844 13.621094 L 12.710938 12.808594 C 12.710938 12.808594 12.714844 12.546875 13.03125 12.546875 C 13.089844 12.546875 13.132812 12.558594 13.171875 12.582031 L 13.257812 12.328125 C 13.207031 12.304688 13.144531 12.289062 13.078125 12.289062 Z M 16.859375 12.289062 C 16.722656 12.285156 16.492188 12.480469 16.492188 12.480469 L 16.492188 12.320312 L 16.226562 12.320312 L 16.226562 13.621094 L 16.496094 13.621094 L 16.492188 12.808594 C 16.492188 12.808594 16.496094 12.546875 16.8125 12.546875 C 16.871094 12.546875 16.917969 12.558594 16.953125 12.582031 L 17.039062 12.328125 C 16.988281 12.304688 16.925781 12.289062 16.859375 12.289062 Z M 7.488281 12.28125 C 7.085938 12.28125 6.871094 12.65625 6.871094 12.972656 C 6.871094 13.292969 7.113281 13.664062 7.5 13.664062 C 7.722656 13.664062 7.90625 13.492188 7.90625 13.492188 L 7.90625 13.625 L 8.171875 13.625 L 8.171875 12.320312 L 7.90625 12.320312 L 7.90625 12.484375 C 7.90625 12.484375 7.734375 12.28125 7.488281 12.28125 Z M 7.539062 12.546875 C 7.753906 12.546875 7.929688 12.742188 7.929688 12.984375 C 7.929688 13.222656 7.753906 13.417969 7.539062 13.417969 C 7.324219 13.417969 7.148438 13.222656 7.148438 12.984375 C 7.148438 12.742188 7.324219 12.546875 7.539062 12.546875 Z M 15.195312 12.28125 C 14.792969 12.28125 14.578125 12.65625 14.578125 12.972656 C 14.578125 13.292969 14.820312 13.664062 15.207031 13.664062 C 15.429688 13.664062 15.613281 13.492188 15.613281 13.492188 L 15.613281 13.625 L 15.878906 13.625 L 15.878906 12.320312 L 15.613281 12.320312 L 15.613281 12.484375 C 15.613281 12.484375 15.441406 12.28125 15.195312 12.28125 Z M 15.246094 12.546875 C 15.460938 12.546875 15.636719 12.742188 15.636719 12.984375 C 15.636719 13.222656 15.460938 13.417969 15.246094 13.417969 C 15.03125 13.417969 14.855469 13.222656 14.855469 12.984375 C 14.855469 12.742188 15.03125 12.546875 15.246094 12.546875 Z M 17.730469 12.28125 C 17.328125 12.28125 17.117188 12.65625 17.117188 12.972656 C 17.113281 13.292969 17.359375 13.664062 17.742188 13.664062 C 17.96875 13.664062 18.152344 13.492188 18.152344 13.492188 L 18.152344 13.625 L 18.414062 13.625 L 18.414062 11.804688 L 18.152344 11.804688 L 18.152344 12.484375 C 18.152344 12.484375 17.976562 12.28125 17.730469 12.28125 Z M 17.78125 12.546875 C 18 12.546875 18.175781 12.742188 18.175781 12.984375 C 18.175781 13.222656 18 13.417969 17.78125 13.417969 C 17.566406 13.417969 17.394531 13.222656 17.394531 12.984375 C 17.394531 12.742188 17.566406 12.546875 17.78125 12.546875 Z M 8.976562 13.667969 C 8.703125 13.667969 8.449219 13.492188 8.449219 13.492188 L 8.566406 13.304688 C 8.566406 13.304688 8.804688 13.421875 8.976562 13.421875 C 9.089844 13.421875 9.273438 13.382812 9.277344 13.265625 C 9.28125 13.144531 8.964844 13.109375 8.964844 13.109375 C 8.964844 13.109375 8.492188 13.101562 8.492188 12.699219 C 8.492188 12.445312 8.726562 12.28125 9.03125 12.28125 C 9.203125 12.28125 9.53125 12.441406 9.53125 12.441406 L 9.398438 12.65625 C 9.398438 12.65625 9.148438 12.550781 9.015625 12.546875 C 8.902344 12.539062 8.765625 12.597656 8.765625 12.699219 C 8.765625 12.972656 9.550781 12.675781 9.550781 13.234375 C 9.550781 13.601562 9.230469 13.667969 8.976562 13.667969 Z M 9.988281 11.941406 L 9.988281 12.320312 L 9.753906 12.320312 L 9.753906 12.597656 L 9.988281 12.597656 L 9.988281 13.25 C 9.988281 13.25 9.964844 13.691406 10.425781 13.691406 C 10.550781 13.691406 10.800781 13.597656 10.800781 13.597656 L 10.691406 13.3125 C 10.691406 13.3125 10.59375 13.398438 10.484375 13.394531 C 10.269531 13.390625 10.277344 13.25 10.277344 13.25 L 10.277344 12.59375 L 10.714844 12.59375 L 10.714844 12.320312 L 10.277344 12.320312 L 10.277344 11.941406 Z M 11.578125 12.296875 C 11.148438 12.296875 10.929688 12.667969 10.933594 12.988281 C 10.933594 13.316406 11.128906 13.6875 11.601562 13.6875 C 11.804688 13.6875 12.089844 13.5 12.089844 13.5 L 11.96875 13.28125 C 11.96875 13.28125 11.773438 13.421875 11.601562 13.421875 C 11.261719 13.421875 11.238281 13.074219 11.238281 13.074219 L 12.15625 13.074219 C 12.15625 13.074219 12.222656 12.296875 11.578125 12.296875 Z M 11.539062 12.554688 C 11.546875 12.554688 11.558594 12.554688 11.570312 12.554688 C 11.890625 12.554688 11.890625 12.871094 11.890625 12.871094 L 11.238281 12.871094 C 11.238281 12.871094 11.222656 12.574219 11.539062 12.554688 Z M 14.300781 13.277344 L 14.425781 13.53125 C 14.425781 13.53125 14.230469 13.664062 14.011719 13.664062 C 13.558594 13.664062 13.308594 13.308594 13.308594 12.976562 C 13.308594 12.449219 13.707031 12.292969 13.976562 12.292969 C 14.222656 12.292969 14.4375 12.441406 14.4375 12.441406 L 14.296875 12.695312 C 14.296875 12.695312 14.214844 12.5625 13.972656 12.5625 C 13.726562 12.5625 13.597656 12.78125 13.597656 12.988281 C 13.597656 13.21875 13.75 13.417969 13.976562 13.417969 C 14.152344 13.417969 14.300781 13.277344 14.300781 13.277344 Z M 14.300781 13.277344 "/>
<path style=" stroke:none;fill-rule:evenodd;fill:rgb(96.862745%,62.352941%,10.196078%);fill-opacity:1;" d="M 19.152344 8.875 L 19.152344 8.699219 L 19.105469 8.699219 L 19.054688 8.820312 L 19.003906 8.699219 L 18.960938 8.699219 L 18.960938 8.875 L 18.992188 8.875 L 18.992188 8.742188 L 19.039062 8.855469 L 19.074219 8.855469 L 19.121094 8.742188 L 19.121094 8.875 Z M 18.871094 8.875 L 18.871094 8.726562 L 18.929688 8.726562 L 18.929688 8.699219 L 18.785156 8.699219 L 18.785156 8.726562 L 18.839844 8.726562 L 18.839844 8.875 Z M 19.160156 6.261719 C 19.160156 8.980469 17.042969 11.1875 14.429688 11.1875 C 11.816406 11.1875 9.699219 8.980469 9.699219 6.261719 C 9.699219 3.539062 11.816406 1.332031 14.429688 1.332031 C 17.042969 1.332031 19.160156 3.539062 19.160156 6.261719 Z M 19.160156 6.261719 "/>
<path style=" stroke:none;fill-rule:evenodd;fill:rgb(91.764706%,0%,10.588235%);fill-opacity:1;" d="M 13.324219 6.261719 C 13.324219 8.980469 11.203125 11.1875 8.59375 11.1875 C 5.980469 11.1875 3.859375 8.980469 3.859375 6.261719 C 3.859375 3.539062 5.980469 1.332031 8.59375 1.332031 C 11.203125 1.332031 13.324219 3.539062 13.324219 6.261719 Z M 13.324219 6.261719 "/>
<path style=" stroke:none;fill-rule:evenodd;fill:rgb(100%,37.254902%,0.392157%);fill-opacity:1;" d="M 11.511719 2.382812 C 10.40625 3.285156 9.699219 4.683594 9.699219 6.257812 C 9.699219 7.832031 10.40625 9.234375 11.511719 10.136719 C 12.613281 9.234375 13.324219 7.832031 13.324219 6.257812 C 13.324219 4.683594 12.613281 3.285156 11.511719 2.382812 Z M 11.511719 2.382812 "/>
</g>
</svg>
