<?xml version="1.0" encoding="UTF-8"?>
<svg xmlns="http://www.w3.org/2000/svg" xmlns:xlink="http://www.w3.org/1999/xlink" width="23pt" height="15pt" viewBox="0 0 23 15" version="1.1">
<g id="surface1">
<path style=" stroke:none;fill-rule:evenodd;fill:rgb(5.490196%,27.058824%,58.431373%);fill-opacity:1;" d="M 1.226562 0 L 21.773438 0 C 22.449219 0 23 0.570312 23 1.273438 L 23 13.726562 C 23 14.429688 22.449219 15 21.773438 15 L 1.226562 15 C 0.550781 15 0 14.429688 0 13.726562 L 0 1.273438 C 0 0.570312 0.550781 0 1.226562 0 Z M 1.226562 0 "/>
<path style=" stroke:none;fill-rule:evenodd;fill:rgb(100%,100%,100%);fill-opacity:1;" d="M 8.53125 10.644531 L 9.554688 4.410156 L 11.191406 4.410156 L 10.167969 10.644531 Z M 16.078125 4.542969 C 15.753906 4.417969 15.246094 4.28125 14.613281 4.28125 C 12.996094 4.28125 11.855469 5.128906 11.847656 6.339844 C 11.835938 7.234375 12.660156 7.734375 13.28125 8.035156 C 13.917969 8.339844 14.132812 8.535156 14.128906 8.808594 C 14.125 9.226562 13.621094 9.414062 13.148438 9.414062 C 12.496094 9.414062 12.148438 9.320312 11.609375 9.089844 L 11.398438 8.988281 L 11.167969 10.386719 C 11.550781 10.558594 12.257812 10.710938 12.992188 10.71875 C 14.710938 10.71875 15.828125 9.882812 15.839844 8.585938 C 15.847656 7.878906 15.410156 7.339844 14.46875 6.894531 C 13.894531 6.605469 13.542969 6.414062 13.546875 6.121094 C 13.546875 5.863281 13.84375 5.585938 14.484375 5.585938 C 15.019531 5.574219 15.410156 5.695312 15.710938 5.824219 L 15.855469 5.894531 L 16.078125 4.542969 M 20.289062 4.410156 L 19.023438 4.410156 C 18.632812 4.410156 18.339844 4.519531 18.167969 4.925781 L 15.738281 10.640625 L 17.457031 10.640625 C 17.457031 10.640625 17.738281 9.871094 17.800781 9.703125 C 17.988281 9.703125 19.65625 9.707031 19.898438 9.707031 C 19.945312 9.925781 20.09375 10.640625 20.09375 10.640625 L 21.613281 10.640625 Z M 18.285156 8.433594 C 18.417969 8.078125 18.933594 6.691406 18.933594 6.691406 C 18.925781 6.710938 19.070312 6.332031 19.152344 6.097656 L 19.261719 6.636719 C 19.261719 6.636719 19.578125 8.125 19.640625 8.433594 Z M 7.140625 4.410156 L 5.539062 8.660156 L 5.371094 7.796875 C 5.070312 6.800781 4.140625 5.722656 3.101562 5.183594 L 4.566406 10.632812 L 6.300781 10.632812 L 8.875 4.410156 Z M 7.140625 4.410156 "/>
<path style=" stroke:none;fill-rule:evenodd;fill:rgb(94.901961%,68.235294%,7.843137%);fill-opacity:1;" d="M 4.046875 4.410156 L 1.40625 4.410156 L 1.386719 4.539062 C 3.4375 5.054688 4.796875 6.300781 5.359375 7.800781 L 4.789062 4.9375 C 4.6875 4.542969 4.402344 4.421875 4.046875 4.410156 "/>
</g>
</svg>
