<?xml version="1.0" encoding="UTF-8"?>
<svg xmlns="http://www.w3.org/2000/svg" xmlns:xlink="http://www.w3.org/1999/xlink" width="23pt" height="15pt" viewBox="0 0 23 15" version="1.1">
<g id="surface1">
<path style=" stroke:none;fill-rule:nonzero;fill:rgb(15.686275%,22.745098%,59.215686%);fill-opacity:1;" d="M 1.226562 0 L 21.773438 0 C 22.449219 0 23 0.570312 23 1.273438 L 23 13.726562 C 23 14.429688 22.449219 15 21.773438 15 L 1.226562 15 C 0.550781 15 0 14.429688 0 13.726562 L 0 1.273438 C 0 0.570312 0.550781 0 1.226562 0 Z M 1.226562 0 "/>
<path style=" stroke:none;fill-rule:nonzero;fill:rgb(15.686275%,22.745098%,59.215686%);fill-opacity:1;" d="M 6.292969 13.214844 L 16.71875 13.214844 L 16.71875 1.785156 L 6.292969 1.785156 Z M 6.292969 13.214844 "/>
<path style=" stroke:none;fill-rule:nonzero;fill:rgb(93.333333%,27.843137%,60%);fill-opacity:1;" d="M 16.722656 2.078125 L 16.414062 2.625 L 6.277344 2.382812 L 6.277344 2.328125 Z M 16.378906 2.695312 L 16.058594 3.234375 L 6.457031 2.984375 L 6.429688 2.945312 Z M 16.019531 3.3125 L 15.707031 3.851562 L 6.808594 3.597656 L 6.785156 3.5625 Z M 15.660156 3.925781 L 15.359375 4.46875 L 7.183594 4.214844 L 7.15625 4.179688 Z M 15.316406 4.539062 L 15.007812 5.082031 L 7.535156 4.832031 L 7.511719 4.789062 Z M 14.960938 5.160156 L 14.648438 5.699219 L 7.902344 5.445312 L 7.882812 5.410156 Z M 14.605469 5.769531 L 14.296875 6.316406 L 8.28125 6.0625 L 8.257812 6.023438 Z M 14.257812 6.386719 L 13.945312 6.929688 L 8.636719 6.679688 L 8.609375 6.636719 Z M 13.910156 7 L 13.589844 7.542969 L 8.988281 7.289062 L 8.964844 7.253906 Z M 13.554688 7.617188 L 13.242188 8.160156 L 9.363281 7.90625 L 9.339844 7.871094 Z M 13.203125 8.234375 L 12.886719 8.773438 L 9.730469 8.523438 L 9.707031 8.484375 Z M 12.847656 8.84375 L 12.535156 9.386719 L 10.097656 9.136719 L 10.074219 9.09375 Z M 12.496094 9.464844 L 12.183594 10 L 10.457031 9.75 L 10.433594 9.714844 Z M 12.148438 10.078125 L 11.828125 10.621094 L 10.808594 10.371094 L 10.785156 10.328125 Z M 11.777344 10.710938 L 11.460938 11.273438 L 11.121094 10.980469 L 11.109375 10.941406 Z M 6.277344 10.960938 L 16.722656 10.960938 Z M 6.277344 10.960938 "/>
<path style="fill:none;stroke-width:1.0006;stroke-linecap:butt;stroke-linejoin:miter;stroke:rgb(93.333333%,27.843137%,60%);stroke-opacity:1;stroke-miterlimit:2.6131;" d="M 159.695992 406.473437 L 500.304008 406.473437 " transform="matrix(0.0306667,0,0,0.0318471,1.38,-1.984076)"/>
<path style="fill:none;stroke-width:1.0006;stroke-linecap:butt;stroke-linejoin:miter;stroke:rgb(93.333333%,27.843137%,60%);stroke-opacity:1;stroke-miterlimit:2.6131;" d="M 159.695992 387.216406 L 500.304008 387.216406 " transform="matrix(0.0306667,0,0,0.0318471,1.38,-1.984076)"/>
<path style="fill:none;stroke-width:1.0006;stroke-linecap:butt;stroke-linejoin:miter;stroke:rgb(93.333333%,27.843137%,60%);stroke-opacity:1;stroke-miterlimit:2.6131;" d="M 159.695992 367.959375 L 500.304008 367.959375 " transform="matrix(0.0306667,0,0,0.0318471,1.38,-1.984076)"/>
<path style="fill:none;stroke-width:1.0006;stroke-linecap:butt;stroke-linejoin:miter;stroke:rgb(93.333333%,27.843137%,60%);stroke-opacity:1;stroke-miterlimit:2.6131;" d="M 159.695992 348.579687 L 500.304008 348.579687 " transform="matrix(0.0306667,0,0,0.0318471,1.38,-1.984076)"/>
<path style="fill:none;stroke-width:1.0006;stroke-linecap:butt;stroke-linejoin:miter;stroke:rgb(93.333333%,27.843137%,60%);stroke-opacity:1;stroke-miterlimit:2.6131;" d="M 159.695992 329.322656 L 500.304008 329.322656 " transform="matrix(0.0306667,0,0,0.0318471,1.38,-1.984076)"/>
<path style="fill:none;stroke-width:1.0006;stroke-linecap:butt;stroke-linejoin:miter;stroke:rgb(93.333333%,27.843137%,60%);stroke-opacity:1;stroke-miterlimit:2.6131;" d="M 159.695992 309.942969 L 500.304008 309.942969 " transform="matrix(0.0306667,0,0,0.0318471,1.38,-1.984076)"/>
<path style="fill:none;stroke-width:1.0006;stroke-linecap:butt;stroke-linejoin:miter;stroke:rgb(93.333333%,27.843137%,60%);stroke-opacity:1;stroke-miterlimit:2.6131;" d="M 159.695992 290.808594 L 500.304008 290.808594 " transform="matrix(0.0306667,0,0,0.0318471,1.38,-1.984076)"/>
<path style="fill:none;stroke-width:1.0006;stroke-linecap:butt;stroke-linejoin:miter;stroke:rgb(93.333333%,27.843137%,60%);stroke-opacity:1;stroke-miterlimit:2.6131;" d="M 159.695992 271.30625 L 500.304008 271.30625 " transform="matrix(0.0306667,0,0,0.0318471,1.38,-1.984076)"/>
<path style="fill:none;stroke-width:1.0006;stroke-linecap:butt;stroke-linejoin:miter;stroke:rgb(93.333333%,27.843137%,60%);stroke-opacity:1;stroke-miterlimit:2.6131;" d="M 159.695992 252.049219 L 500.304008 252.049219 " transform="matrix(0.0306667,0,0,0.0318471,1.38,-1.984076)"/>
<path style="fill:none;stroke-width:1.0006;stroke-linecap:butt;stroke-linejoin:miter;stroke:rgb(93.333333%,27.843137%,60%);stroke-opacity:1;stroke-miterlimit:2.6131;" d="M 159.695992 232.792188 L 500.304008 232.792188 " transform="matrix(0.0306667,0,0,0.0318471,1.38,-1.984076)"/>
<path style="fill:none;stroke-width:1.0006;stroke-linecap:butt;stroke-linejoin:miter;stroke:rgb(93.333333%,27.843137%,60%);stroke-opacity:1;stroke-miterlimit:2.6131;" d="M 159.695992 213.535156 L 500.304008 213.535156 " transform="matrix(0.0306667,0,0,0.0318471,1.38,-1.984076)"/>
<path style="fill:none;stroke-width:1.0006;stroke-linecap:butt;stroke-linejoin:miter;stroke:rgb(93.333333%,27.843137%,60%);stroke-opacity:1;stroke-miterlimit:2.6131;" d="M 159.695992 194.155469 L 500.304008 194.155469 " transform="matrix(0.0306667,0,0,0.0318471,1.38,-1.984076)"/>
<path style="fill:none;stroke-width:1.0006;stroke-linecap:butt;stroke-linejoin:miter;stroke:rgb(93.333333%,27.843137%,60%);stroke-opacity:1;stroke-miterlimit:2.6131;" d="M 159.695992 174.775781 L 500.304008 174.775781 " transform="matrix(0.0306667,0,0,0.0318471,1.38,-1.984076)"/>
<path style="fill:none;stroke-width:1.0006;stroke-linecap:butt;stroke-linejoin:miter;stroke:rgb(93.333333%,27.843137%,60%);stroke-opacity:1;stroke-miterlimit:2.6131;" d="M 159.695992 155.641406 L 500.304008 155.641406 " transform="matrix(0.0306667,0,0,0.0318471,1.38,-1.984076)"/>
<path style=" stroke:none;fill-rule:nonzero;fill:rgb(100%,100%,100%);fill-opacity:1;" d="M 12.558594 11.628906 L 12.558594 12.820312 L 13.335938 12.820312 L 13.433594 12.59375 C 13.292969 12.597656 13.191406 12.601562 13.046875 12.601562 L 12.882812 12.601562 L 12.882812 12.304688 L 12.902344 12.304688 C 12.984375 12.304688 13.078125 12.3125 13.171875 12.316406 L 13.269531 12.082031 C 13.21875 12.089844 13.210938 12.089844 13.144531 12.089844 C 13.023438 12.09375 12.992188 12.09375 12.882812 12.09375 L 12.882812 11.851562 L 12.921875 11.851562 C 13.019531 11.851562 13.148438 11.855469 13.316406 11.859375 L 13.40625 11.628906 Z M 9.582031 11.628906 L 9.664062 11.753906 L 9.222656 12.820312 L 9.539062 12.820312 L 9.613281 12.640625 L 10.066406 12.640625 L 10.140625 12.820312 L 10.476562 12.820312 L 9.972656 11.628906 Z M 9.976562 12.421875 L 9.699219 12.421875 L 9.835938 12.078125 Z M 8.167969 11.550781 L 7.84375 11.550781 L 7.84375 12.820312 L 8.628906 12.820312 L 8.722656 12.59375 C 8.621094 12.597656 8.488281 12.601562 8.347656 12.601562 L 8.167969 12.601562 Z M 11.804688 11.6875 C 11.679688 11.628906 11.566406 11.601562 11.453125 11.601562 C 11.207031 11.601562 11.035156 11.742188 11.035156 11.941406 C 11.035156 12.070312 11.089844 12.152344 11.230469 12.25 L 11.394531 12.363281 C 11.472656 12.417969 11.503906 12.457031 11.503906 12.519531 C 11.503906 12.59375 11.4375 12.640625 11.335938 12.640625 C 11.25 12.640625 11.191406 12.613281 11.097656 12.535156 L 11.011719 12.746094 C 11.15625 12.824219 11.230469 12.847656 11.355469 12.847656 C 11.640625 12.847656 11.820312 12.699219 11.820312 12.472656 C 11.820312 12.34375 11.765625 12.257812 11.621094 12.152344 L 11.449219 12.027344 C 11.378906 11.972656 11.359375 11.949219 11.359375 11.910156 C 11.359375 11.84375 11.40625 11.804688 11.492188 11.804688 C 11.5625 11.804688 11.625 11.832031 11.722656 11.894531 Z M 14.121094 11.628906 L 14.121094 12.820312 L 14.445312 12.820312 L 14.445312 11.847656 L 14.519531 11.847656 C 14.660156 11.847656 14.742188 11.90625 14.742188 12.019531 C 14.742188 12.132812 14.648438 12.210938 14.503906 12.210938 C 14.488281 12.210938 14.480469 12.210938 14.457031 12.203125 L 14.847656 12.820312 L 15.207031 12.820312 L 14.882812 12.324219 C 15.023438 12.238281 15.082031 12.144531 15.082031 11.996094 C 15.082031 11.746094 14.914062 11.625 14.570312 11.625 Z M 14.121094 11.628906 "/>
</g>
</svg>
