<?xml version="1.0" encoding="UTF-8"?>
<svg xmlns="http://www.w3.org/2000/svg" xmlns:xlink="http://www.w3.org/1999/xlink" width="14pt" height="16pt" viewBox="0 0 14 16" version="1.1">
<g id="surface1">
<path style=" stroke:none;fill-rule:nonzero;fill:rgb(0%,0%,0%);fill-opacity:1;" d="M 1 14.5 C 1 15.328125 1.671875 16 2.5 16 L 11.5 16 C 12.328125 16 13 15.328125 13 14.5 L 13 4 L 1 4 Z M 9.5 6.5 C 9.5 6.222656 9.722656 6 10 6 C 10.277344 6 10.5 6.222656 10.5 6.5 L 10.5 13.5 C 10.5 13.777344 10.277344 14 10 14 C 9.722656 14 9.5 13.777344 9.5 13.5 Z M 6.5 6.5 C 6.5 6.222656 6.722656 6 7 6 C 7.277344 6 7.5 6.222656 7.5 6.5 L 7.5 13.5 C 7.5 13.777344 7.277344 14 7 14 C 6.722656 14 6.5 13.777344 6.5 13.5 Z M 3.5 6.5 C 3.5 6.222656 3.722656 6 4 6 C 4.277344 6 4.5 6.222656 4.5 6.5 L 4.5 13.5 C 4.5 13.777344 4.277344 14 4 14 C 3.722656 14 3.5 13.777344 3.5 13.5 Z M 13.5 1 L 9.75 1 L 9.457031 0.414062 C 9.328125 0.160156 9.070312 0 8.785156 0 L 5.210938 0 C 4.929688 0 4.667969 0.160156 4.542969 0.414062 L 4.25 1 L 0.5 1 C 0.222656 1 0 1.222656 0 1.5 L 0 2.5 C 0 2.777344 0.222656 3 0.5 3 L 13.5 3 C 13.777344 3 14 2.777344 14 2.5 L 14 1.5 C 14 1.222656 13.777344 1 13.5 1 Z M 13.5 1 "/>
</g>
</svg>
